<?xml version="1.0" encoding="utf-8"?>
<!-- Generator: Adobe Illustrator 18.1.1, SVG Export Plug-In . SVG Version: 6.00 Build 0)  -->
<!DOCTYPE svg PUBLIC "-//W3C//DTD SVG 1.1//EN" "http://www.w3.org/Graphics/SVG/1.1/DTD/svg11.dtd">
<svg version="1.1" id="Layer_1" xmlns="http://www.w3.org/2000/svg" xmlns:xlink="http://www.w3.org/1999/xlink" x="0px" y="0px"
	 viewBox="0 0 495.4 264.6" enable-background="new 0 0 495.4 264.6" xml:space="preserve">
<g>
	<path fill="#5FB7E0" d="M213.2,258.7l4-2.3c0.5-0.3,1.1-0.6,1.6-0.9c14.4-8.3,22.4-23.4,22.3-38.9l0-169.2
		C240.9,32.3,233,17.7,219,9.7l-1.4-0.8c-1.4-1-2.8-2-4.4-2.9c-14.4-8.3-31.5-7.7-44.8,0.2L21.6,91.1c-12.9,7.7-21.6,21.9-21.5,38
		l0,4.7c0,0.6-0.1,1.2-0.1,1.8c0,16.6,9.1,31.1,22.6,38.7l147,84.7C182.7,266.3,199.3,266.8,213.2,258.7z M62.5,132.5L185,61.6
		v141.3L62.5,132.5z"/>
	<path fill="#2C83C5" d="M103,98c0-0.2,0-0.5,0-0.8l0-0.8L103,98z"/>
	<path fill="#2C83C5" d="M84,144.9L8,161c0.5,0.7,1.1,1.5,1.6,2.2l75.8-17.5L84,144.9z M90.2,148.4l-73,22.3
		c0.8,0.6,1.6,1.2,2.4,1.7l71.8-23.3L90.2,148.4z M76.5,140.6l-74.2,9.1c0.3,0.8,0.6,1.7,0.9,2.5l75-10.6L76.5,140.6z M100,154.1
		l-59.8,30.4l2.1,1.2l58.5-31.2L100,154.1z M95.4,151.5l-66.2,26.7l2.4,1.4L96.4,152L95.4,151.5z M91.2,115.9L19.4,92.5
		c-0.8,0.6-1.6,1.1-2.4,1.7l73,22.3L91.2,115.9z M67,135.1l-66.9,2.3c0,0.9,0.1,1.7,0.2,2.6l69-3.6L67,135.1z M85.3,119.3L9.5,101.8
		c-0.6,0.7-1.1,1.4-1.6,2.2l76,16.1L85.3,119.3z M104.1,156.4l-54,33.7l1.9,1.1l52.9-34.4L104.1,156.4z M96.3,112.9L31.5,85.4
		l-2.4,1.4l66.2,26.7L96.3,112.9z M69.2,128.6L0.3,125c-0.1,0.9-0.1,1.7-0.2,2.6l66.9,2.3L69.2,128.6z M78.1,123.4l-75-10.6
		c-0.3,0.8-0.6,1.6-0.9,2.5l74.2,9.1L78.1,123.4z M129.8,171.2L112,225.9l1.6,0.9l16.9-55.2L129.8,171.2z M126.7,169.4l-22.2,52.1
		l1.5,0.9l21.3-52.7L126.7,169.4z M133,173.1l-13.2,57.3l1.7,1l12.3-57.8L133,173.1z M136.4,175l-8.5,60l1.8,1l7.4-60.6L136.4,175z
		 M123.7,167.7l-26.4,49.7l1.5,0.9l25.5-50.2L123.7,167.7z M114.5,162.4l-39.4,42.2l1.6,0.9l38.5-42.7L114.5,162.4z M120.7,166
		L90,213.2l1.5,0.9l29.8-47.7L120.7,166z M111.2,160.5l-44,39.6l1.7,1l43-40.1L111.2,160.5z M107.8,158.6L59,195.3l1.8,1l47.8-37.3
		L107.8,158.6z M117.6,164.2l-35,44.7l1.5,0.9l34.1-45.3L117.6,164.2z M140.1,177.1l-3.3,63l1.9,1.1l2.2-63.7L140.1,177.1z
		 M185,155.1l56.2,29.9l0-2.3L185,154.2V155.1z M130.4,93.2l-16.9-55.3l-1.6,0.9l17.8,54.7L130.4,93.2z M185,123.5l56.2-11.9l0-1.9
		l-56.2,13V123.5z M185,131l56.2-1.9l0-1.8l-56.2,3V131z M185,119.5l56.2-17.2v-2L185,118.7V119.5z M185,115.3l56.2-22.7l0-2.1
		L185,114.4V115.3z M185,134.7l56.2,3v-1.8L185,134L185,134.7z M133.7,91.3l-12.3-57.9l-1.7,1L133,91.7L133.7,91.3z M185,110.8
		l56.2-28.6V80L185,109.9V110.8z M124.2,96.8L98.7,46.5l-1.5,0.9l26.5,49.7L124.2,96.8z M148.5,182l8.6,69.9l2.4,1.4l-10-70.7
		L148.5,182z M185,150.6l56.2,23.9l0-2.1L185,149.7V150.6z M185,146.3l56.2,18.3l0-2L185,145.5V146.3z M185,138.5l56.2,7.9l0-1.8
		l-56.2-6.9L185,138.5z M185,142.3l56.2,13l0-1.9L185,141.5V142.3z M144,179.4l2.3,66.2l2.1,1.2l-3.5-67L144,179.4z M185,127.3
		l56.2-6.9v-1.8l-56.2,7.9L185,127.3z M185,78.1l45.8-58.6c-0.6-0.7-1.2-1.3-1.8-2L185,76V78.1z M178,65.7l32.5-61.2
		c-0.8-0.4-1.6-0.7-2.4-1.1l-32.3,63.5L178,65.7z M185,67l36.3-55.9c-0.7-0.5-1.5-0.9-2.2-1.4L185,64.4V67z M154.8,79.1l17.3-74.8
		c-0.9,0.4-1.8,0.9-2.7,1.4l-15.7,74.1L154.8,79.1z M175.5,197.5l32.5,63.8c0.8-0.3,1.6-0.7,2.4-1.1l-32.7-61.5L175.5,197.5z
		 M168.5,71.2l30-70.5c-0.9-0.1-1.8-0.3-2.7-0.4l-29,71.9L168.5,71.2z M161,75.5l24.4-75.1c-0.9,0.1-1.9,0.3-2.8,0.4l-23.1,75.5
		L161,75.5z M140.8,87.2l-2.2-63.8l-1.9,1.1l3.3,63.1L140.8,87.2z M137.1,89.3l-7.4-60.7l-1.8,1l8.5,60.1L137.1,89.3z M185,86.9
		l52.6-56.4c-0.4-0.8-0.8-1.7-1.2-2.5L185,85.2L185,86.9z M144.9,84.8l3.5-67.1l-2.1,1.2L144,85.3L144.9,84.8z M185,105.9l56.2-35.1
		l0-2.5L185,104.8V105.9z M149.5,82.1l10-70.8l-2.4,1.4l-8.6,70L149.5,82.1z M185,100.5l56.2-42.3l0-2.9L185,99.2L185,100.5z
		 M185,94.2l56-50.4c-0.1-1-0.2-2-0.4-2.9L185,92.8V94.2z M127.3,95L106,42.3l-1.5,0.9l22.2,52.2L127.3,95z M108.4,105.9L60.6,68.5
		l-1.8,1l48.8,36.8L108.4,105.9z M100.8,110.3L42.2,79.2l-2.1,1.2l59.8,30.4L100.8,110.3z M185,200.7l34.2,54.7
		c0.8-0.4,1.5-0.9,2.2-1.4L185,198V200.7z M121.2,98.5L91.4,50.8l-1.5,0.9l30.7,47.3L121.2,98.5z M104.8,108L51.8,73.6l-1.9,1.1
		l54.1,33.8L104.8,108z M166.6,192.4l29.1,72c0.9-0.1,1.8-0.2,2.7-0.4l-30-70.7L166.6,192.4z M185,172.2l55.6,51.9
		c0.2-1,0.3-2,0.4-2.9l-56-50.3L185,172.2z M111.8,104l-43-40.1l-1.7,1l44,39.6L111.8,104z M185,179.8l51.4,57.1
		c0.4-0.8,0.8-1.7,1.2-2.5L185,178.1L185,179.8z M185,189l44,58.5c0.6-0.6,1.2-1.3,1.8-2L185,186.9L185,189z M159.4,188.3l23.1,75.5
		c0.9,0.2,1.8,0.3,2.8,0.5l-24.5-75.2L159.4,188.3z M185,165.8l56.2,43.9l0-2.9L185,164.5V165.8z M115,102.1L76.6,59.3L75,60.2
		l39.4,42.2L115,102.1z M185,160.2l56.2,36.5l0-2.5L185,159.1V160.2z M153.5,184.9l15.7,74l0.3,0.2c0.8,0.4,1.6,0.9,2.4,1.2
		l-17.3-74.7L153.5,184.9z M118.2,100.3L84,55l-1.5,0.9l35,44.8L118.2,100.3z"/>
	<path fill="#114067" d="M173.2,254.9c13.8,8,31.4,8.6,46.2,0l-0.2,0.1l-6.2,3.6c-14.2,8.2-31.1,7.6-44.4,0l1.3,0.7l-147.2-85
		c-13.5-7.7-22.6-22.1-22.6-38.7c0-16.5,9-30.9,22.3-38.6l149-86.3c2.7-1.6,6.1-1.7,9,0c2.9,1.7,4.5,4.7,4.5,7.8l0,43.1L25.4,154.1
		c-2.7,1.5-4.5,4.4-4.5,7.7c0,3.3,1.8,6.2,4.5,7.8L173.2,254.9z"/>
	<path fill="#154369" d="M134.8,90.7l-9.9-52.9l-5.7,3.3l13.1,51.1L134.8,90.7z M131.5,92.6l-14.1-50.5l-5.5,3.2L129.1,94
		L131.5,92.6z M181.4,63.7l3.5-6.3l0-13.1l-11.5,24.1L181.4,63.7z M171.2,69.6L185,39.2V20l-20,53.2L171.2,69.6z M138.4,88.6
		l-5.5-55.5l-6.1,3.5l8.9,53.6L138.4,88.6z M151.1,81.2l10.7-64.9l-8.3,4.8l-6.1,62.2L151.1,81.2z M163.2,74.3l21-59.5
		c-0.7-1.6-2-3-3.6-4c-1.1-0.6-2.3-1-3.5-1.1l-18.9,67.6L163.2,74.3z M146.4,84l4.7-61.4l-7.3,4.2l-0.6,59L146.4,84z M156.6,78
		l17.5-68.3c-0.9,0.2-1.8,0.5-2.6,1l-6.8,3.9l-12.3,65.8L156.6,78z M142.2,86.4l-0.6-58.3l-6.6,3.8l4.3,56.2L142.2,86.4z M112,219.5
		l-1.8,5.2l5.8,3.3l1.5-5.4L112,219.5z M77.2,199.4l-3.9,4l5.8,3.3l3.6-4.2L77.2,199.4z M91.3,207.5l-3.1,4.5l5.5,3.2l2.8-4.7
		L91.3,207.5z M170.4,259.4l-0.6-0.4c-0.2-0.1-0.5-0.2-0.7-0.4L170.4,259.4z M61.7,190.5l-4.8,3.5l6.5,3.7l4.5-3.7L61.7,190.5z
		 M69.7,195.1l-4.3,3.7l6,3.5l4-3.9L69.7,195.1z M128.4,94.4l-18.1-48.2l-5.3,3.1L126,95.8L128.4,94.4z M32.7,173.8l-6.5,2.5l8.8,5
		l6-2.7L32.7,173.8z M43.5,180l-5.9,2.8l7.7,4.5l5.5-3.1L43.5,180z M216.2,256.9l0.1,0.2l3.3-1.9
		C218.5,255.8,217.4,256.3,216.2,256.9z M22,166.2l-7.4,2.1c2.5,2.3,5.3,4.4,8.3,6.1l0.4,0.2l6.7-2.4l-4.5-2.6
		C24,168.8,22.8,167.6,22,166.2z M185,61l-0.6,1l0.6-0.3L185,61z M219.7,255.1L219.7,255.1c0,0,0.1-0.1,0.2-0.1L219.7,255.1z
		 M135,232.7l-0.5,6l7,4l0.1-6.2L135,232.7z M105.1,215.5l-2.2,4.9l5.6,3.2l1.9-5.1L105.1,215.5z M98.2,211.5l-2.7,4.7l5.5,3.2
		l2.3-4.9L98.2,211.5z M119.3,223.6l-1.4,5.5l6,3.5l1.1-5.7L119.3,223.6z M126.9,228l-0.9,5.7l6.4,3.7l0.6-5.9L126.9,228z M53,185.5
		l-5.3,3.2l7,4l4.9-3.4L53,185.5z M116.1,101.5L82.5,62.3L77,65.5l36.7,37.5L116.1,101.5z M109.6,105.3L67.7,70.9l-6.1,3.5
		l45.3,32.4L109.6,105.3z M102.1,109.6L50.7,80.7l-7.3,4.2l55.4,26.6L102.1,109.6z M106,107.4L59.6,75.6L53,79.4l50.1,29.7
		L106,107.4z M112.9,103.4L75.3,66.5l-5.7,3.3l40.8,35L112.9,103.4z M125.3,96.2l-22-45.9l-5.2,3L123,97.5L125.3,96.2z M122.2,98
		L96.4,54.3l-5.2,3l28.8,42L122.2,98z M119.2,99.7L89.5,58.2l-5.3,3.1l32.7,39.8L119.2,99.7z M97.8,112.1L41,86.4l-8.2,4.8
		l61.4,23.1L97.8,112.1z M72,127.1l-69.5-5.3c-1,3-1.6,6.1-2,9.3l63.6,0.7L72,127.1z M61.1,133.4L0.3,134c0,0.5-0.1,1.1-0.1,1.6
		c0,2.6,0.3,5.2,0.7,7.8l49.5-3.8L61.1,133.4z M46.3,142l-44.7,4.4c0.8,3.1,1.9,6.1,3.3,8.9l25.8-4.3L46.3,142z M87.2,118.3
		l-69.6-17.9c-2.8,2.1-5.2,4.6-7.4,7.3l72,13.5L87.2,118.3z M80.4,122.2L8.2,110.3c-1.8,2.7-3.4,5.5-4.6,8.6l70.7,6.9L80.4,122.2z
		 M92.9,115l-63-22.2L22.6,97c-0.7,0.4-1.4,0.9-2.1,1.3l68.2,19.1L92.9,115z M24.6,154.6L6.3,158c1.7,2.9,3.7,5.5,5.9,7.9l8.8-2.3
		c-0.1-0.6-0.2-1.2-0.2-1.9C20.9,158.9,22.3,156.2,24.6,154.6z M84.3,203.5l-3.5,4.2l5.6,3.2l3.2-4.4L84.3,203.5z M153.6,243.4
		l0.7,6.6l8.7,5l-1.1-6.9L153.6,243.4z M177.4,256.9l1.7,6c3.3,0.9,6.6,1.5,10.1,1.7l-1.5-4.3C184.1,259.5,180.7,258.4,177.4,256.9z
		 M164.6,249.8l1.3,7l3.9,2.2c1.9,1.1,4,2,6,2.8l-1.7-6.6c-0.2-0.1-0.4-0.2-0.5-0.3L164.6,249.8z M190.9,260.8l1.4,3.8
		c3.2-0.1,6.5-0.5,9.6-1.3l-1.1-2.3C197.6,261.3,194.2,261.2,190.9,260.8z M204.1,260.6l0.9,1.9c2.9-0.9,5.8-2.2,8.5-3.8l0.2-0.1
		l-0.3-0.5C210.4,259.3,207.2,260.1,204.1,260.6z M143.8,237.8l0.1,6.3l7.7,4.5l-0.5-6.6L143.8,237.8z"/>
	<path fill="#2C83C5" d="M235.7,46c0-16-8.3-31.5-23.1-40l0.2,0.1l6.2,3.6c14.2,8.2,22.2,23.1,22.2,38.4l0-1.5v169.9
		c0.1,15.5-7.9,30.6-22.3,38.9c-14.3,8.3-31.3,7.7-44.6,0L25.1,169.6c-2.7-1.5-4.5-4.4-4.5-7.8c0-3.3,1.8-6.2,4.5-7.8l37.4-21.6
		l159.9,92c2.7,1.5,6.1,1.7,8.9,0c2.9-1.7,4.5-4.7,4.5-7.8L235.7,46z"/>
	<path fill="#62B1DC" d="M2.5,121.5l-1.8-0.1c0.1-0.9,0.4-1.8,0.5-2.6l2.2,0.3C3.1,119.9,2.8,120.7,2.5,121.5z M0.7,131.2
		c-0.1,0.9-0.2,1.7-0.2,2.6H0.5v-2.6L0.7,131.2z M235.9,208.8l0,2.9L185,168.4l0-1.3L235.9,208.8z M185.1,193.9l0-2.3l13.9,19.4
		l-3.5-2L185.1,193.9z M185.1,183.6l0-1.9l35.9,41.8l-5.4-3.1L185.1,183.6z M185,173.8l49.2,48.1c-0.5,0.6-1,1.2-1.6,1.7l-47.6-48.3
		L185,173.8z M235.9,196l0,2.5L185,162.4l0-1.2L235.9,196z M185,156.1l50.8,28.6l0,2.3L185,157.1 M185,157.1l0-1 M235.8,139.3l0,1.7
		l-50.8-4.8v-0.8L235.8,139.3z M235.8,147.6v1.7L185,140l0-0.8L235.8,147.6z M235.8,156.1l0,1.8l-50.8-14l0-0.8L235.8,156.1z
		 M235.8,165l0,1.9L185,148v-0.9L235.8,165z M235.8,176.5L185,152.4v-0.9l50.8,23L235.8,176.5z M185,132.5l0-0.8l50.8-0.6v1.7
		L185,132.5 M235.8,124.7l-50.8,4.1l0-0.8l50.8-5L235.8,124.7z M235.7,87.5l0,2.1L185,112.8l0-0.9L235.7,87.5z M235.7,97.1l0,1.9
		L185,117.1l0-0.9L235.7,97.1z M235.7,106.2l0,1.8L185,121.2v-0.8L235.7,106.2z M235.8,116.5L185,125l0-0.8l50.8-9.5L235.8,116.5z
		 M235.7,79.3L185,108.1v-1l50.7-30L235.7,79.3z M235.7,52.4l0,2.9L185,97.2v-1.3L235.7,52.4z M235.7,68L185,103v-1.1l50.7-36.4
		L235.7,68z M235.1,37.6c0.2,1,0.3,2,0.4,3L185,90.4v-1.5L235.1,37.6z M230.9,24.5c0.4,0.8,0.8,1.7,1.2,2.5L185,82.4v-1.9
		L230.9,24.5 M223.5,13.9c0.6,0.7,1.2,1.3,1.8,2 M225.3,15.9l-40.4,56.8l0-2.3l38.6-56.4 M215.8,7.4l-30.7,52.3l0-3.1L213.6,6
		C214.3,6.5,215.1,7,215.8,7.4z M185.1,42.7l0-4.4l16.8-37.1c0.9,0.2,1.7,0.5,2.6,0.7L185.1,42.7z M191.8,0L185,18.2v0
		c0-1.3-0.4-2.6-1-3.8L189,0C189.9,0,190.9,0,191.8,0z M176.4,9.5c-0.8,0-1.6,0-2.4,0.2l1.8-7c0.9-0.3,1.8-0.6,2.8-0.9L176.4,9.5z
		 M165.4,7.9l-1.3,7l-2.4,1.4l1.1-6.9L165.4,7.9z M151.5,16l2.3-1.3l-0.5,6.7l-2.2,1.3L151.5,16z M143.4,20.7l0,6.4l-1.9,1.1
		l-0.1-6.3L143.4,20.7z M132.2,27.1l1.8-1.1l0.5,6.1l-1.7,1L132.2,27.1z M126.4,36.8l-1.6,0.9l-1.1-5.8l1.7-0.9L126.4,36.8z
		 M115.8,36.6l1.6-0.9l1.5,5.6l-1.5,0.9L115.8,36.6z M108.2,41l1.5-0.9l1.9,5.2l-1.5,0.8L108.2,41z M104.7,49.4l-1.4,0.8l-2.4-5
		l1.5-0.9L104.7,49.4z M95.1,48.6l2.8,4.8l-1.4,0.8l-2.9-4.7L95.1,48.6 M87.8,52.8l3.2,4.6l-1.4,0.8l-3.3-4.5L87.8,52.8z M80.4,57.1
		l3.6,4.3l-1.5,0.8L78.9,58L80.4,57.1z M76.8,65.5l-1.5,0.9l-4.1-4l1.6-0.9L76.8,65.5z M69.3,69.9l-1.6,0.9L63.2,67l1.7-1L69.3,69.9
		z M56.4,70.9l5,3.5l-1.7,1L54.6,72L56.4,70.9z M47.3,76.3l5.5,3.3l-1.9,1.1l-5.6-3.2L47.3,76.3z M37.1,82.1l6.1,2.9l-2.1,1.2
		l-6.2-2.8L37.1,82.1z M25.7,88.7l6.8,2.5l-2.4,1.4l-6.9-2.4L25.7,88.7z M20.2,98.4c-1,0.7-1.8,1.2-2.4,1.7l-5.6-1.4
		c0.6-0.7,1.3-1.4,2-2L20.2,98.4z M10,107.8c-0.6,0.7-1.1,1.5-1.7,2.2l-3.7-0.6c0.4-0.8,0.8-1.6,1.3-2.4L10,107.8z"/>
	<path fill="#146BB5" d="M173.1,196.1l31,64.7c-0.9,0.2-1.8,0.3-2.7,0.4L171.2,195L173.1,196.1z M241.2,133l-5.4,0l0-1.7l5.4-0.1
		V133z M241.2,113.7v1.9l-5.4,0.9v-1.8L241.2,113.7z M241.2,124.3l-5.4,0.4v-1.7l5.4-0.5V124.3z M216.2,256.9
		c-0.8,0.4-1.6,0.8-2.4,1.1l-32.4-57l2.5,1.5L216.2,256.9z M224.7,251.5l-29.4-42.6l3.5,2l27.8,38.8
		C226,250.4,225.4,250.9,224.7,251.5z M241.2,106.6l-5.4,1.4v-1.8l5.4-1.5V106.6z M164.7,191.3l26.3,69.8c-0.9-0.1-1.9-0.3-2.8-0.5
		l-25-70.2L164.7,191.3z M164.5,249.8l-2.4-1.4l-11-64.9l1.1,0.6L164.5,249.8z M141.7,236.7l0.4-58.3l0.8,0.5l0.6,59L141.7,236.7z
		 M126.6,228l-1.6-0.9l9.7-53l0.7,0.4L126.6,228z M119,223.6l-1.5-0.9l13.9-50.6l0.7,0.4L119,223.6z M138.3,176.1l0.8,0.4l-4.3,56.1
		l-1.7-1L138.3,176.1z M147.3,181.3l6.1,62.1l-2.1-1.2l-4.9-61.4L147.3,181.3z M156.6,186.7l1.3,0.7l19.5,69.6c-1-0.5-1.9-1-2.8-1.5
		l-0.2-0.1c0.1,0,0.1,0.1,0.2,0.1L156.6,186.7z M116.7,163.7L84,203.5l-1.5-0.8l33.5-39.3L116.7,163.7z M235.8,139.4l5.4,0.4v1.8
		l-5.4-0.5V139.4z M224,13c0.7,0.5,1.4,1.1,2,1.7l-1.1,1.6c-0.6-0.7-1.2-1.3-1.8-2L224,13z M113.5,161.8l-36.7,37.5l-1.5-0.9
		l37.5-37L113.5,161.8z M111.8,219.4l-1.5-0.8l18-48.2l0.7,0.4L111.8,219.4z M89.5,206.7l29.6-41.6l0.6,0.4l-28.8,42L89.5,206.7z
		 M122.8,167.2l-24.9,44.2l-1.4-0.8l25.7-43.8L122.8,167.2z M125.8,168.9l-21.1,46.5l-1.4-0.8l21.9-46L125.8,168.9z M67.7,194.1
		l41.8-34.5l0.7,0.4L69.3,195L67.7,194.1z M61.3,190.4l-1.7-1l46.3-31.9l0.8,0.4L61.3,190.4z M102,155.2l0.8,0.5l-50.2,29.7
		l-1.9-1.1L102,155.2z M40.9,178.7l56.7-26l0.9,0.5l-55.5,26.6L40.9,178.7z M32.3,173.7l-2.4-1.4l62.9-22.4l1.1,0.6L32.3,173.7z
		 M21.7,166c-0.4-0.7-0.6-1.4-0.8-2.1l66.2-17.2l1.3,0.7L21.7,166z M71.9,137.9l1.9,1.1l-27.3,2.7l3.5-2L71.9,137.9z M81.8,143.6
		l-57.1,10.7c0.1-0.1,0.3-0.2,0.4-0.3l4.9-2.8l50.3-8.5L81.8,143.6z M235.8,149.4l0-1.7l5.4,0.9v1.8L235.8,149.4z M241.2,95.1v2
		l-5.4,1.9l0-1.9L241.2,95.1z M241.2,73.8v2.4l-5.4,3.1V77L241.2,73.8z M241.2,84.9v2.2l-5.4,2.5v-2.1L241.2,84.9z M232.8,22.1
		c0.5,0.7,1,1.5,1.5,2.2l-2.5,3c-0.4-0.8-0.8-1.7-1.2-2.5L232.8,22.1z M241.2,187.8v2.4l-5.4-3.2v-2.3L241.2,187.8z M241.2,199.8
		v2.7l-5.4-3.8v-2.5L241.2,199.8z M235.7,65.4l5.4-3.9v2.7l-5.4,3.8L235.7,65.4z M241.2,177v2.2l-5.4-2.6l0-2.1L241.2,177z
		 M215.4,220.5l5.4,3.1l14,16.3c-0.5,0.8-1,1.5-1.5,2.3L215.4,220.5z M238.8,33.8c0.3,0.9,0.6,1.8,0.8,2.7l-4.2,4.2
		c-0.1-1-0.3-2-0.4-2.9L238.8,33.8z M241.2,47.6v3.1l-5.4,4.5l0-2.9L241.2,47.6z M235.8,156.2l5.4,1.4v1.9l-5.4-1.5V156.2z
		 M241.2,167v2l-5.4-2v-1.9L241.2,167z M241.2,213.2v3.1l-5.4-4.6v-2.9L241.2,213.2z M232.5,223.6c0.6-0.5,1.1-1.1,1.6-1.7l5.8,5.6
		c-0.2,0.9-0.5,1.8-0.8,2.8L232.5,223.6z"/>
	<g>
		<g>
			<path fill="#FFFFFF" d="M300.8,93.3c-0.8,1.1-3.3,3.7-4.7,4.5c-1,0.6-2.5,1.1-3.8,1.1h-17.5V60.8h17.5c1.2,0,2.8,0.4,3.9,1.1
				c1.4,0.8,3.8,3.6,4.6,4.7c0.8,1.1,1,2.4,1,3.6v19.5C301.7,90.8,301.5,92.1,300.8,93.3z M291.8,92.5c0,0,0.4,0,0.4-0.1
				c0.9-0.5,2.8-2.2,2.8-2.9V70.3c0,0,0-0.2-0.1-0.3c-0.8-1.3-2-2.4-2.8-2.8c-0.1-0.1-0.4-0.1-0.6-0.1h-10.1v25.4H291.8z"/>
			<path fill="#FFFFFF" d="M310.4,67.5v-6.8h6.8v6.8H310.4z M310.6,98.9V71.3h6.4v27.5H310.6z"/>
			<path fill="#FFFFFF" d="M347.8,77.1v24.1c0,1.3-0.2,2.8-1.1,4c-0.5,0.8-2.1,2.4-3.1,3.1c-1.3,0.9-3.1,1.4-4.7,1.4h-5.6
				c-1.5,0-3.4-0.7-4.6-1.5c-1-0.7-3.4-3.2-4.1-4.7l5.9-1.8c0,0,0.1,0.1,0.2,0.3c0.4,0.4,1.7,1.7,2.4,1.7h5.7c0.1,0,0.3-0.1,0.4-0.1
				c0.6-0.3,2-1.5,2.1-2c0-0.1,0-0.3,0-0.4v-3.4c-1.1,0.8-2.4,1.5-3.8,1.5h-4.9c-1.5,0-3.4-0.5-4.7-1.4c-1-0.7-2.6-2.4-3.1-3.1
				c-0.9-1.2-1.1-2.6-1.1-4V79.5c0-1.3,0.3-2.7,1.1-4c0.5-0.7,2-2.4,3.1-3.1c1.3-0.9,3.1-1.4,4.7-1.4h4.9c1.5,0,3.1,0.8,4.2,1.7
				l0.2-1.4h6.3L347.8,77.1z M337.5,93.1c0,0,0.3,0,0.4-0.1c1.1-0.6,2.7-1.9,3.5-2.9V80.1c-0.9-1-3-3-4-3h-4.7
				c-0.1,0-0.3,0.1-0.4,0.1c-0.7,0.4-1.7,1.3-2.1,2.1c-0.1,0.1-0.1,0.3-0.1,0.3v10.9c0,0,0,0.3,0.1,0.4c0.4,0.8,1.4,1.7,2.1,2.1
				c0.1,0.1,0.3,0.1,0.4,0.1H337.5z"/>
			<path fill="#FFFFFF" d="M356.2,67.5v-6.8h6.8v6.8H356.2z M356.5,98.9V71.3h6.4v27.5H356.5z"/>
			<path fill="#FFFFFF" d="M378.1,90.3c0,0,0,0.3,0.1,0.4c0.4,0.7,1.6,2.1,2.5,2.1h5.3v6.1h-5.4c-1.6,0-3.3-0.4-4.6-1.3
				c-1-0.7-2.5-2.4-3.1-3.1c-0.8-1.2-1.2-2.6-1.2-4v-13h-4.3v-6.1h4.3V60.8h6.4v10.6h7.9v6.1h-7.9V90.3z"/>
			<path fill="#FFFFFF" d="M408.7,79.4c0,0,0-0.3-0.1-0.3c-0.4-0.6-1.3-1.5-2-1.9c-0.1-0.1-0.3-0.1-0.4-0.1h-5.6
				c-0.8,0-2.2,1.5-2.6,2l-6-1.8c0.6-1.5,3.1-4,4.1-4.7c1.2-0.8,3.1-1.5,4.6-1.5h5.5c1.6,0,3.4,0.5,4.7,1.4c1,0.7,2.5,2.2,3.1,3
				c0.9,1.2,1.1,2.7,1.1,4v13.9l0.6,5.6h-6.4l-0.2-1.3c-1.1,0.8-2.5,1.6-4,1.6h-5.2c-1.6,0-3.3-0.5-4.6-1.4c-1-0.7-2.5-2.3-3-3
				c-0.8-1.1-1.1-2.5-1.1-3.9v-1.1c0-1.4,0.3-2.7,1.1-3.9c0.5-0.7,2-2.3,3-3c1.3-0.9,3-1.4,4.6-1.4h8.8V79.4z M408.7,87.5H400
				c-0.2,0-0.4,0.1-0.4,0.1c-0.7,0.4-1.5,1.3-1.9,2c0,0-0.1,0.1-0.1,0.2v1c0,0.1,0.1,0.2,0.1,0.2c0.4,0.8,1.3,1.5,2,2
				c0,0,0.3,0.1,0.4,0.1h5c0.7,0,3.3-2,3.8-2.5V87.5z"/>
			<path fill="#FFFFFF" d="M424,98.9c-0.2-1.3-0.6-3.5-0.6-4.7V60.8h6.4v32.7c0,1.2,0.3,2.6,0.6,5.4H424z"/>
			<path fill="#FFFFFF" d="M301.9,157.2c-0.8,1.1-3.3,3.8-4.7,4.6c-1,0.6-2.6,1.1-4,1.1h-10.1c-3.6,0-6.4-3.1-8.1-5.3
				c-0.5-0.7-0.6-1-1.1-2l6.3-2.1c0,0,1.3,1.8,2.8,2.9c0,0,0.1,0.1,0.4,0.1h9.5c0.3,0,0.4-0.1,0.4-0.1c1-0.5,2.9-2.4,2.9-2.9v-3.8
				c0-0.6-0.4-1-0.8-1.1l-16.6-4.5c-3.3-0.9-5-4-5-6.9v-3.6c0-1.1,0.2-2.5,1-3.6c0.8-1.1,3.4-3.8,4.7-4.6c1-0.6,2.5-1.1,4-1.1h9.4
				c3.6,0,6.4,3.1,8.1,5.3c0.5,0.7,0.8,1.3,1.3,2.2l-6.4,1.8c0,0-1.5-2.1-2.8-2.9c0,0-0.1-0.1-0.4-0.1h-8.9c-0.3,0-0.4,0.1-0.4,0.1
				c-1,0.5-2.9,2.4-2.9,2.9v3.4c0,0.6,0.4,1,0.7,1.1l16.6,4.5c3.2,0.9,5,4.1,5,6.9v4C302.9,154.6,302.7,156,301.9,157.2z"/>
			<path fill="#FFFFFF" d="M326.8,162.6l-9.8-11.2v11.2h-6.4v-38.1h6.4v20.4l9.2-9.8h8.6l-12.2,13l12.7,14.5H326.8z"/>
			<path fill="#FFFFFF" d="M339.6,131.2v-6.8h6.8v6.8H339.6z M339.8,162.6v-27.5h6.4v27.5H339.8z"/>
			<path fill="#FFFFFF" d="M354,162.6c-0.2-1.3-0.6-3.5-0.6-4.7v-33.4h6.4v32.7c0,1.2,0.3,2.5,0.6,5.4H354z"/>
			<path fill="#FFFFFF" d="M368.6,162.6c-0.2-1.3-0.6-3.5-0.6-4.7v-33.4h6.4v32.7c0,1.2,0.3,2.5,0.6,5.4H368.6z"/>
			<path fill="#FFFFFF" d="M389.8,156.9h7c0.8,0,2.3-1.4,2.3-2.3v-1.5c0-0.3-0.1-0.8-0.8-0.9c-2.2-0.2-6.8-0.5-10.5-0.8
				c-3.4-0.3-6-2.4-6-6.5v-1.9c0-1.4,0.3-2.7,1.1-3.9c1.8-2.5,4.2-4.3,7.4-4.3h6.1c1.5,0,3.4,0.6,4.6,1.5c1,0.7,3.5,3.2,4.1,4.7
				l-6,1.8c0,0-0.1-0.1-0.2-0.3c-0.4-0.4-1.7-1.7-2.4-1.7h-6.1c0,0-0.6,0-0.8,0.1c-0.3,0.1-1.1,0.8-1.5,1.5c0,0-0.1,0.1-0.1,0.6v1.5
				c0,0.2,0.3,0.8,1,0.8c1.7,0.2,6.5,0.6,10,1c3.4,0.4,6.3,2.4,6.3,6.6v1.8c0,1.4-0.4,2.7-1.2,3.9c-0.5,0.8-1.8,2.2-2.9,2.9
				c-1.3,0.9-2.9,1.4-4.5,1.4H390c-1.5,0-3.4-0.7-4.6-1.5c-1-0.7-3.4-3.2-4.1-4.7l5.9-1.8l0.2,0.3
				C387.9,155.6,389.2,156.8,389.8,156.9z"/>
			<path fill="#FFFFFF" d="M296.3,210h-17.7l-2.9,8.9h-3.9l12.8-38.2h5.7l12.8,38.2h-4L296.3,210z M295.1,206.4l-7.3-22.2H287
				l-7.3,22.2H295.1z"/>
			<path fill="#FFFFFF" d="M327.3,218c-1,0.8-2.5,1.2-3.9,1.2h-6.5c-1.4,0-2.9-0.4-4-1.2c-0.9-0.6-2.4-2.4-2.9-3.1
				c-0.6-1-0.9-2.1-0.9-3.4v-12.7c0-1.3,0.3-2.4,0.9-3.4c0.5-0.7,2-2.4,2.9-3.1c1-0.8,2.6-1.2,4-1.2h6.3c1.4,0,2.9,0.4,3.9,1.2
				c1.6,1.1,2.9,3.2,3.8,4.5l-3.3,1.1c-0.5-1.1-2-2.7-3.1-3.3c-0.3-0.2-0.7-0.3-1.1-0.3h-6.4c-0.4,0-0.8,0.1-1.1,0.3
				c-1,0.6-2.4,2-3,3.1c-0.1,0.3-0.2,0.6-0.2,1.1v12.5c0,0.4,0.1,0.8,0.2,1.1c0.6,1.1,1.9,2.5,2.9,3.1c0.3,0.2,0.7,0.3,1.1,0.3h6.6
				c0.4,0,0.8-0.1,1.1-0.3c1-0.6,2.6-2.2,3-3.1l0.1-0.1l3.3,1.1C330.3,214.9,328.8,216.9,327.3,218z"/>
			<path fill="#FFFFFF" d="M356.5,218.8l-0.4-3.2c-0.8,0.8-1.7,1.7-2.4,2.2c-1,0.7-2,1.3-3.1,1.3h-5.6c-1.5,0-2.9-0.4-3.9-1.2
				c-0.8-0.7-2.3-2.3-2.8-3c-0.6-1-1-2.1-1-3.4v-1.3c0-1.3,0.3-2.4,1-3.4c0.5-0.7,2-2.3,2.8-3c1-0.8,2.4-1.2,3.9-1.2H356v-3.9
				c0-0.5-0.1-0.8-0.1-1c-0.6-1.1-2-2.5-3.1-3.1c-0.3-0.2-0.7-0.3-1.1-0.3h-6c-0.4,0-0.8,0.1-1.1,0.3c-1,0.6-2.4,2.1-3.1,3.2
				l-3.3-1.1c0.2-0.3,0.5-0.9,1-1.5c0.6-0.8,2-2.4,2.9-3.1c1-0.8,2.4-1.1,3.8-1.1h5.9c1.5,0,2.9,0.4,4,1.2c1,0.6,2.4,2.3,2.9,3
				c0.7,1,0.9,2.2,0.9,3.4v15.6l0.4,4.5H356.5z M356,211.8V206h-11c-0.4,0-0.8,0.1-1.1,0.3c-1,0.6-2.4,1.9-2.9,3
				c-0.1,0.3-0.2,0.6-0.2,1v1.3c0,0.4,0.1,0.8,0.2,1c0.6,1.1,1.9,2.4,2.9,3c0.3,0.2,0.7,0.3,1.1,0.3h5.4c0.3,0,0.6-0.1,0.9-0.2
				C352.2,215.1,355.2,213.3,356,211.8z"/>
			<path fill="#FFFFFF" d="M372.3,192.3c1-0.8,2.4-1.2,3.9-1.2h5c1.1,0,2.2,0.6,3.2,1.3c0.8,0.6,1.6,1.3,2.5,2.3v-14.2h3.4v33.7
				l0.4,4.5h-3.4l-0.4-3.4c-0.8,1-1.7,1.8-2.5,2.4c-1,0.7-2.1,1.3-3.2,1.3h-5c-1.5,0-2.9-0.4-3.9-1.2c-0.8-0.7-2.4-2.4-2.9-3.1
				c-0.6-1-1-2.1-1-3.4v-12.7c0-1.3,0.3-2.4,1-3.4C370,194.7,371.5,193,372.3,192.3z M372.1,212.5c0.6,1.1,2,2.5,3,3.1
				c0.3,0.2,0.7,0.3,1.1,0.3h4.7c0.3,0,0.6-0.1,0.9-0.2c1-0.5,4-2.4,4.8-3.9c0,0,0.1-0.1,0.1-0.3v-12.6c-0.1-0.2-0.1-0.3-0.1-0.3
				c-0.8-1.5-3.8-3.4-4.8-3.9c-0.3-0.1-0.6-0.2-0.9-0.2h-4.7c-0.4,0-0.8,0.1-1.1,0.3c-1,0.6-2.4,2-3,3.1c-0.1,0.3-0.2,0.6-0.2,1.1
				v12.5C371.9,211.8,372,212.2,372.1,212.5z"/>
			<path fill="#FFFFFF" d="M417.8,212.3l3.4,1.1c-0.3,0.5-0.5,0.9-0.9,1.4c-0.5,0.7-2,2.4-2.9,3.1c-1,0.8-2.5,1.2-3.9,1.2h-6.5
				c-1.4,0-2.9-0.4-4-1.2c-0.9-0.6-2.4-2.4-2.9-3.1c-0.6-1-1-2.1-1-3.4v-12.7c0-1.3,0.3-2.4,1-3.4c0.5-0.7,2-2.4,2.9-3.1
				c1-0.8,2.5-1.2,4-1.2h6.4c1.4,0,2.9,0.4,4,1.2c0.9,0.6,2.4,2.4,2.9,3.1c0.6,1,0.9,2.1,0.9,3.4v7.9h-18.4v4.7
				c0,0.4,0.1,0.8,0.2,1.1c0.6,1.1,2,2.5,3,3.1c0.3,0.2,0.6,0.3,1.1,0.3h6.7c0.4,0,0.8-0.1,1.1-0.3c1-0.6,2.4-2.2,2.9-3.1
				L417.8,212.3z M402.7,198.9v4.5h15v-4.5c0-0.4,0-0.8-0.1-1.1c-0.6-1.1-2-2.5-3.1-3.1c-0.3-0.2-0.7-0.3-1.1-0.3h-6.3
				c-0.4,0-0.8,0.1-1.1,0.3c-1,0.6-2.5,2-3.1,3.1C402.8,198.1,402.7,198.5,402.7,198.9z"/>
			<path fill="#FFFFFF" d="M438.9,194.4c-0.3,0-0.6,0.1-0.9,0.2c-1.1,0.6-3.8,2.3-4.8,3.8v20.4h-3.4V196l-0.4-4.5h3.4l0.4,3.2
				c0.8-0.8,1.7-1.7,2.4-2.2c0.9-0.6,2-1.3,3.1-1.3h3.2c1.3,0,2.9,0.4,4,1.2c0.9,0.6,2.4,2.4,2.9,3.1l0.1,0.1c1-1.1,2.2-2.4,3.1-3.1
				c0.9-0.6,2.1-1.3,3.2-1.3h3c1.3,0,2.9,0.4,4,1.2c0.9,0.6,2.4,2.4,2.9,3.1c0.6,1,0.9,2.1,0.9,3.4v20.1h-3.4v-19.9
				c0-0.4-0.1-0.8-0.2-1.1c-0.6-1.1-2-2.6-3-3.2c-0.3-0.2-0.7-0.2-1.1-0.2h-2.7c-0.3,0-0.7,0.1-1,0.2c-1,0.6-3.8,2.2-4.7,3.8v0.4
				v20.1h-3.4v-19.9c0-0.4-0.1-0.8-0.2-1.1c-0.6-1.1-2-2.6-3.1-3.2c-0.3-0.2-0.7-0.2-1.1-0.2H438.9z"/>
			<path fill="#FFFFFF" d="M495.4,191.4L483,229.6h-3.6l3.6-10.7h-1.5l-8.9-27.4h3.7l7.5,23.9h0.4l7.5-23.9H495.4z"/>
		</g>
	</g>
</g>
</svg>
